<svg width="157" height="70" fill="none" xmlns="http://www.w3.org/2000/svg"><rect x="2" y="2" width="66" height="66" rx="12" stroke="url(#paint0_linear)" stroke-width="4"/><path d="M47.517 51.04c-1.733 0-2.973-.493-3.72-1.48-.746-1.013-1.12-2.493-1.12-4.44 0-1.947.627-6.427 1.88-13.44h-.64c-1.626 2.133-2.973 4.68-4.04 7.64-1.066 2.96-1.72 5.627-1.96 8-1.306 1.227-2.813 1.84-4.52 1.84-.693 0-1.306-.24-1.84-.72-.506-.507-1.013-1.373-1.52-2.6-.986-2.48-1.693-7.2-2.12-14.16h-.64c-1.306 5.733-1.96 9.773-1.96 12.12 0 2.347.4 4.16 1.2 5.44-1.6 1.2-3.266 1.8-5 1.8-1.733 0-2.973-.493-3.72-1.48-.746-1.013-1.12-2.507-1.12-4.48 0-2 .84-7.64 2.52-16.92l-2.12-4.28c3.014-1.947 5.76-2.92 8.24-2.92 1.094 0 2.014.12 2.76.36.774.213 1.507.64 2.2 1.28.72.64 1.307 1.533 1.76 2.68 1.04 2.587 1.787 6.36 2.24 11.32h.48c1.387-4.08 3.307-7.587 5.76-10.52a14.688 14.688 0 014.76-3.72c1.867-.907 3.88-1.36 6.04-1.36 2.054 0 3.08 1.24 3.08 3.72 0 .827-.52 3.907-1.56 9.24-1.013 5.307-1.52 8.467-1.52 9.48 0 2.587.4 4.52 1.2 5.8-1.6 1.2-3.266 1.8-5 1.8zm44.253-20.8c.774-1.067 1.828-1.933 3.16-2.6 1.36-.693 2.868-1.04 4.52-1.04 1.948 0 3.708.467 5.281 1.4 1.573.933 2.813 2.267 3.72 4 .907 1.707 1.36 3.667 1.36 5.88s-.453 4.2-1.36 5.96c-.907 1.733-2.16 3.093-3.76 4.08-1.573.96-3.32 1.44-5.24 1.44-1.707 0-3.227-.333-4.56-1-1.307-.667-2.347-1.52-3.12-2.56V49h-4.56V19.4h4.56v10.84zm13.401 7.64c0-1.52-.32-2.827-.96-3.92-.613-1.12-1.44-1.96-2.48-2.52a6.435 6.435 0 00-3.28-.88 6.58 6.58 0 00-3.28.88c-1.013.587-1.84 1.44-2.48 2.56-.613 1.12-.92 2.44-.92 3.96s.307 2.853.92 4c.64 1.12 1.467 1.973 2.48 2.56a6.58 6.58 0 003.28.88 6.435 6.435 0 003.28-.88c1.04-.613 1.867-1.493 2.48-2.64.64-1.147.96-2.48.96-4zm18.709 11.48c-2.08 0-3.96-.467-5.64-1.4-1.68-.96-3-2.293-3.96-4-.96-1.733-1.44-3.733-1.44-6 0-2.24.494-4.227 1.48-5.96.987-1.733 2.334-3.067 4.04-4 1.707-.933 3.614-1.4 5.72-1.4 2.107 0 4.014.467 5.72 1.4 1.707.933 3.054 2.267 4.04 4 .987 1.733 1.48 3.72 1.48 5.96 0 2.24-.506 4.227-1.52 5.96a10.627 10.627 0 01-4.16 4.04c-1.733.933-3.653 1.4-5.76 1.4zm0-3.96a6.67 6.67 0 003.28-.84c1.04-.56 1.88-1.4 2.52-2.52.64-1.12.96-2.48.96-4.08s-.306-2.947-.92-4.04c-.613-1.12-1.426-1.96-2.44-2.52a6.67 6.67 0 00-3.28-.84c-1.173 0-2.266.28-3.28.84-.986.56-1.773 1.4-2.36 2.52-.586 1.093-.88 2.44-.88 4.04 0 2.373.6 4.213 1.8 5.52 1.227 1.28 2.76 1.92 4.6 1.92zm25.388-7.56l7.12 11.16h-5.16l-4.76-7.48-4.48 7.48h-4.76l7.12-10.84-7.12-11.2h5.16l4.76 7.48 4.48-7.48h4.76l-7.12 10.88z" fill="#fff"/><defs><linearGradient id="paint0_linear" x1="0" y1="5" x2="70" y2="70" gradientUnits="userSpaceOnUse"><stop stop-color="#326CFF"/><stop offset="1" stop-color="#26FFF2"/></linearGradient></defs></svg>