<svg width="81" height="81" viewBox="0 0 81 81" fill="none" xmlns="http://www.w3.org/2000/svg">
<path d="M52.143 53.4474L30.3451 53.4474C30.0584 53.4474 29.7834 53.3335 29.5807 53.1307C29.3779 52.928 29.264 52.653 29.264 52.3663L29.264 18.523C29.264 18.4841 29.264 18.4452 29.264 18.4063C29.9267 12.296 33.6435 6.98357 40.6251 2.16627C40.8055 2.04192 41.0195 1.97533 41.2386 1.97533C41.4578 1.97533 41.6717 2.04192 41.8521 2.16627C48.8435 6.98249 52.5549 12.296 53.2122 18.4095C53.2165 18.4476 53.2187 18.4858 53.2186 18.5241L53.2186 52.3663C53.2186 52.6521 53.1055 52.9262 52.9039 53.1288C52.7023 53.3314 52.4287 53.4459 52.143 53.4474ZM31.4262 51.2852L51.0619 51.2852L51.0619 18.5814C50.4749 13.2571 47.3484 8.72736 41.2489 4.376C35.1527 8.72952 32.0262 13.2592 31.4305 18.5825L31.4262 51.2852Z" fill="white"/>
<path d="M24.7754 55.6809C24.6262 55.681 24.4785 55.6503 24.3418 55.5905C24.205 55.5308 24.0821 55.4434 23.9808 55.3339L22.5192 53.7469C21.0197 52.141 20.0149 50.137 19.6251 47.9748C19.2353 45.8126 19.477 43.5839 20.3213 41.5555L20.3765 41.4258C22.2265 37.1215 25.6656 33.6967 29.9776 31.8647C30.1409 31.8057 30.316 31.7868 30.4881 31.8098C30.6602 31.8328 30.8243 31.8969 30.9664 31.9966C31.1085 32.0964 31.2245 32.229 31.3045 32.3831C31.3846 32.5372 31.4263 32.7083 31.4262 32.882L31.4262 48.0917C31.4261 48.2752 31.3793 48.4556 31.2902 48.616C31.2011 48.7764 31.0727 48.9114 30.917 49.0085C28.6789 50.4934 26.8988 52.5726 25.7765 55.0128C25.7066 55.1803 25.5957 55.3275 25.454 55.4408C25.3124 55.5542 25.1444 55.6301 24.9657 55.6614C24.9029 55.6733 24.8393 55.6799 24.7754 55.6809ZM21.3159 41.9804L22.3095 42.4042C21.6281 44.0494 21.4355 45.8562 21.7548 47.6082C22.074 49.3601 22.8916 50.9828 24.1095 52.282L24.5203 52.7285C25.7045 50.6651 27.3231 48.8838 29.2641 47.5079V34.6128C26.2017 36.3685 23.7816 39.0583 22.3581 42.2885L21.3159 41.9804Z" fill="white"/>
<path d="M57.7225 55.6809C57.6587 55.6809 57.595 55.6755 57.5322 55.6647C57.3535 55.6333 57.1855 55.5574 57.0438 55.4441C56.9021 55.3307 56.7912 55.1835 56.7214 55.016C55.5991 52.5758 53.819 50.4966 51.5808 49.0117C51.4252 48.9147 51.2967 48.7796 51.2077 48.6192C51.1186 48.4588 51.0718 48.2784 51.0717 48.095V32.882C51.0716 32.7083 51.1133 32.5372 51.1933 32.3831C51.2734 32.229 51.3893 32.0964 51.5314 31.9966C51.6736 31.8969 51.8376 31.8328 52.0097 31.8098C52.1819 31.7868 52.357 31.8057 52.5203 31.8647C56.8323 33.6967 60.2714 37.1215 62.1214 41.4258L62.1765 41.5555C63.0208 43.5839 63.2626 45.8126 62.8728 47.9748C62.483 50.137 61.4782 52.141 59.9787 53.7469L58.5171 55.3339C58.4157 55.4434 58.2928 55.5308 58.1561 55.5905C58.0193 55.6503 57.8717 55.681 57.7225 55.6809ZM53.2338 47.5079C55.1747 48.8838 56.7934 50.6651 57.9776 52.7285L58.3884 52.282C59.6057 50.9831 60.4228 49.3609 60.7421 47.6097C61.0613 45.8584 60.8691 44.0522 60.1884 42.4074L61.13 41.8669L60.1398 42.2993C58.7162 39.0691 56.2962 36.3793 53.2338 34.6236V47.5079Z" fill="white"/>
<path d="M41.249 23.7511C40.1228 23.7513 39.0218 23.4175 38.0853 22.792C37.1488 22.1664 36.4188 21.2772 35.9876 20.2368C35.5565 19.1963 35.4436 18.0514 35.6632 16.9468C35.8828 15.8422 36.425 14.8275 37.2213 14.0311C38.0175 13.2346 39.0321 12.6922 40.1367 12.4724C41.2413 12.2526 42.3862 12.3653 43.4267 12.7963C44.4672 13.2272 45.3566 13.957 45.9823 14.8934C46.608 15.8298 46.942 16.9308 46.942 18.057C46.9403 19.5664 46.34 21.0136 45.2727 22.081C44.2055 23.1485 42.7585 23.7491 41.249 23.7511ZM41.249 14.5262C40.5504 14.526 39.8674 14.733 39.2864 15.121C38.7054 15.509 38.2526 16.0606 37.9851 16.706C37.7177 17.3514 37.6476 18.0616 37.7839 18.7469C37.9201 19.4321 38.2565 20.0615 38.7505 20.5555C39.2445 21.0495 39.874 21.3859 40.5592 21.5222C41.2444 21.6584 41.9546 21.5884 42.6 21.3209C43.2455 21.0535 43.7971 20.6006 44.1851 20.0196C44.5731 19.4386 44.7801 18.7556 44.7798 18.057C44.7787 17.1209 44.4063 16.2235 43.7444 15.5616C43.0825 14.8997 42.1851 14.5273 41.249 14.5262Z" fill="white"/>
<path d="M51.0241 57.9165H31.4641C31.1774 57.9165 30.9024 57.8026 30.6996 57.5999C30.4969 57.3971 30.383 57.1221 30.383 56.8354V52.3662C30.383 52.0795 30.4969 51.8045 30.6996 51.6018C30.9024 51.3991 31.1774 51.2852 31.4641 51.2852H51.0241C51.3108 51.2852 51.5858 51.3991 51.7885 51.6018C51.9913 51.8045 52.1052 52.0795 52.1052 52.3662V56.8354C52.1052 57.1221 51.9913 57.3971 51.7885 57.5999C51.5858 57.8026 51.3108 57.9165 51.0241 57.9165ZM32.5452 55.7543H49.943V53.4473H32.5452V55.7543Z" fill="white"/>
<path d="M41.3215 77.6507C40.6052 77.6174 39.9152 77.3711 39.3397 76.9434C38.7642 76.5156 38.3295 75.9258 38.0912 75.2496C37.1359 73.1223 35.9075 71.1286 34.4371 69.3188C32.0123 66.1382 30.0966 63.6258 32.6371 56.4744C32.7117 56.2639 32.8497 56.0817 33.032 55.9528C33.2144 55.8238 33.4322 55.7546 33.6555 55.7544H48.8166C49.0401 55.7543 49.2581 55.8235 49.4407 55.9525C49.6233 56.0814 49.7614 56.2638 49.836 56.4744C50.5711 58.3497 50.9859 60.3352 51.0631 62.3479C51.0631 65.3988 49.6966 67.2258 48.115 69.3415C46.6746 71.1506 45.4714 73.1364 44.5344 75.2506C44.3 75.9247 43.8695 76.5133 43.2981 76.9409C42.7268 77.3686 42.0407 77.6157 41.3279 77.6507H41.3215ZM34.4285 57.9166C32.6328 63.3858 33.9106 65.0625 36.1582 68.0085C37.7337 69.9568 39.0505 72.1007 40.076 74.3869C40.3755 75.0766 40.8425 75.4885 41.3236 75.4885C41.7993 75.4885 42.2577 75.0788 42.5517 74.3966C43.5566 72.1264 44.8451 69.9927 46.3863 68.0463C47.8998 66.0193 48.9042 64.6798 48.9042 62.3479C48.8495 60.835 48.5602 59.3397 48.0469 57.9155L34.4285 57.9166Z" fill="white"/>
<path d="M41.2836 67.4247C40.8152 67.4061 40.3628 67.2496 39.9831 66.9747C39.6034 66.6999 39.3134 66.319 39.1495 65.8798C38.679 64.8332 38.0747 63.852 37.3517 62.9609C36.1322 61.3555 35.0814 59.9696 36.1527 56.5112C36.2218 56.2915 36.3592 56.0997 36.5449 55.9636C36.7306 55.8275 36.9549 55.7542 37.1852 55.7544H45.2933C45.5233 55.7544 45.7474 55.8278 45.9329 55.9639C46.1184 56.1 46.2556 56.2917 46.3246 56.5112C46.6052 57.3396 46.7597 58.2055 46.783 59.0798C46.7292 60.5281 46.1577 61.9091 45.1722 62.9717C44.4645 63.8623 43.8728 64.8391 43.4111 65.8788C43.2491 66.3171 42.9611 66.6977 42.5833 66.9728C42.2055 67.2479 41.7548 67.4051 41.2879 67.4247H41.2836ZM38.0057 57.9166C37.5927 59.7133 38.0965 60.3761 39.0684 61.655C39.8966 62.6825 40.5888 63.8125 41.1279 65.0171C41.1617 65.1134 41.2212 65.1986 41.2998 65.2636C41.2836 65.2463 41.3549 65.1793 41.4209 65.0247C41.9494 63.8263 42.6283 62.7002 43.4414 61.6734C44.1342 60.9788 44.553 60.0575 44.6209 59.0788C44.6141 58.6854 44.563 58.2941 44.4684 57.9123L38.0057 57.9166Z" fill="white"/>
<path d="M41.2491 47.43C40.9623 47.43 40.6874 47.3161 40.4846 47.1133C40.2819 46.9106 40.168 46.6356 40.168 46.3489V40.0116C40.168 39.7249 40.2819 39.4499 40.4846 39.2472C40.6874 39.0444 40.9623 38.9305 41.2491 38.9305C41.5358 38.9305 41.8108 39.0444 42.0135 39.2472C42.2162 39.4499 42.3301 39.7249 42.3301 40.0116V46.3489C42.3301 46.6356 42.2162 46.9106 42.0135 47.1133C41.8108 47.3161 41.5358 47.43 41.2491 47.43Z" fill="white"/>
<path d="M36.1677 47.4032C35.881 47.4032 35.606 47.2893 35.4033 47.0866C35.2005 46.8838 35.0866 46.6089 35.0866 46.3221V43.5351C35.0866 43.2484 35.2005 42.9734 35.4033 42.7707C35.606 42.5679 35.881 42.454 36.1677 42.454C36.4544 42.454 36.7294 42.5679 36.9321 42.7707C37.1349 42.9734 37.2488 43.2484 37.2488 43.5351V46.3221C37.2488 46.6089 37.1349 46.8838 36.9321 47.0866C36.7294 47.2893 36.4544 47.4032 36.1677 47.4032Z" fill="white"/>
<path d="M46.317 47.4032C46.0303 47.4032 45.7553 47.2893 45.5526 47.0866C45.3499 46.8838 45.236 46.6089 45.236 46.3221V43.5351C45.236 43.2484 45.3499 42.9734 45.5526 42.7707C45.7553 42.5679 46.0303 42.454 46.317 42.454C46.6038 42.454 46.8787 42.5679 47.0815 42.7707C47.2842 42.9734 47.3981 43.2484 47.3981 43.5351V46.3221C47.3981 46.6089 47.2842 46.8838 47.0815 47.0866C46.8787 47.2893 46.6038 47.4032 46.317 47.4032Z" fill="white"/>
</svg>
