<svg width="80" height="80" fill="none" xmlns="http://www.w3.org/2000/svg"><path d="M23.622 54.417h2.267a.937.937 0 100-1.875h-2.267a.937.937 0 100 1.875zm10.736 2.373h2.9a.937.937 0 100-1.874h-2.9a.938.938 0 000 1.875zm16.432 4.904h2.424a.938.938 0 000-1.875H50.79a.937.937 0 100 1.875zm-24.942-.463a.938.938 0 00.938.938h2.267a.938.938 0 000-1.875h-2.267a.938.938 0 00-.938.937zm38.24 2.057a.938.938 0 00.937.937h2.742a.938.938 0 000-1.875h-2.742a.937.937 0 00-.937.938zm-49.904-.938h-2.742a.938.938 0 000 1.875h2.742a.938.938 0 000-1.875zm30.14-7.642h2.267a.938.938 0 000-1.875h-2.267a.937.937 0 100 1.875zm-7.652-13.016h6.656a.937.937 0 00.938-.937V36.28a4.266 4.266 0 10-8.532 0v4.475a.937.937 0 00.938.937zm.937-5.412a2.39 2.39 0 114.782 0v3.537h-4.782V36.28zm-4.932-6.388a.938.938 0 00-.938.938v.72a.938.938 0 001.875 0v-.72a.937.937 0 00-.937-.938zm0 3.56a.938.938 0 00-.938.937v5.86a.938.938 0 001.875 0v-5.86a.937.937 0 00-.937-.938zM65.54 48.734a.937.937 0 00-.937-.937H62.02a.938.938 0 000 1.875h2.583a.937.937 0 00.938-.938zm-45.91-6.037a.938.938 0 00-.938-.938h-2.584a.938.938 0 000 1.875h2.584a.938.938 0 00.938-.937z" fill="#fff"/><path d="M72.553 72.333V39.4a2.52 2.52 0 002.452-2.516v-8.54a.938.938 0 00-.938-.938h-3.539a.938.938 0 00-.937.938v1.91H67.68v-1.91a.938.938 0 00-.938-.938h-3.539a.938.938 0 00-.937.938v1.91h-1.911v-1.91a.938.938 0 00-.938-.938h-3.539a.938.938 0 00-.937.938v8.54a2.52 2.52 0 002.451 2.516v5.405H53.51a.938.938 0 00-.937.937v1.91h-.82V27.62h1.589a.938.938 0 00.687-1.574l-13.09-14.134V9.65l6.475-2.818a.937.937 0 00.025-1.709l-6.614-3.106a.938.938 0 00-1.761.447v9.448L25.97 26.046a.939.939 0 00.688 1.574h1.59v20.031h-.821v-1.909a.938.938 0 00-.938-.937h-3.882V39.4a2.52 2.52 0 002.451-2.516v-8.54a.938.938 0 00-.937-.938h-3.54a.938.938 0 00-.937.938v1.91h-1.91v-1.91a.938.938 0 00-.938-.938h-3.54a.938.938 0 00-.937.938v1.91h-1.91v-1.91a.938.938 0 00-.938-.938h-3.54a.938.938 0 00-.937.938v8.54A2.52 2.52 0 007.447 39.4v32.933a4.541 4.541 0 00-4.35 4.531v.672a.937.937 0 00.937.937h71.932a.938.938 0 00.937-.937v-.672a4.541 4.541 0 00-4.35-4.531zM40.938 4.142l3.826 1.797-3.827 1.666V4.142zm15.878 32.742v-7.603h1.664v1.91a.937.937 0 00.937.937h3.786a.938.938 0 00.938-.937v-1.91h1.664v1.91a.937.937 0 00.937.937h3.786a.938.938 0 00.938-.937v-1.91h1.664v7.603a.645.645 0 01-.644.644H57.459a.645.645 0 01-.643-.644zM40 13.66l11.194 12.086h-15.1a.937.937 0 100 1.875h13.782v20.031h-.646v-1.909a.938.938 0 00-.938-.937h-5.84a.938.938 0 00-.938.937v1.91h-3.028v-1.91a.938.938 0 00-.938-.937h-5.84a.938.938 0 00-.938.937v1.91h-.647V27.62h2.533a.937.937 0 100-1.875h-3.85L40 13.66zM25.553 46.68v1.91a.937.937 0 00.938.938h5.217a.938.938 0 00.937-.938v-1.91h3.966v1.91a.937.937 0 00.937.938h4.904a.938.938 0 00.937-.938v-1.91h3.966v1.91a.937.937 0 00.937.938h5.217a.938.938 0 00.938-.938v-1.91h3.656v4.915h-1.778a.937.937 0 100 1.875h1.778v7.71a.938.938 0 001.875 0v-4.073h2.411a.938.938 0 000-1.875h-2.41v-9.489a.938.938 0 00-.712-.909v-5.43h11.411v1.592h-2.48a.937.937 0 100 1.875h2.48v26.914h-2.331a.938.938 0 000 1.875h2.331v.67h-10.7v-7.876a.937.937 0 10-1.875 0v3.433h-1.936a.937.937 0 100 1.875h1.936v2.567H46.236v-4.492h3.986a.938.938 0 000-1.875H46.23a5.388 5.388 0 00-2.609-4.422l-3.14-1.875a.938.938 0 00-.962 0l-3.14 1.875a5.39 5.39 0 00-2.615 4.608v3.004h-2.552a.937.937 0 100 1.876h2.552v1.301H21.897v-5.731h1.778a.937.937 0 100-1.875h-1.778V46.68h3.656zm18.808 19.468v6.181h-8.722v-6.181a3.506 3.506 0 011.701-2.998L40 61.56l2.66 1.588a3.506 3.506 0 011.7 2.998zM6.87 36.884v-7.603h1.663v1.91a.937.937 0 00.938.937h3.786a.938.938 0 00.937-.937v-1.91h1.664v1.91a.937.937 0 00.938.937h3.786a.938.938 0 00.937-.937v-1.91h1.664v7.603a.645.645 0 01-.643.644H7.514a.645.645 0 01-.644-.644zm11.373 20.38h1.778v8.177a.907.907 0 000 .436v3.275H17.61a.938.938 0 000 1.874h2.41v1.302H9.32V50.147h2.474a.937.937 0 100-1.875H9.322v-8.869h11.41v5.43a.937.937 0 00-.71.91v9.646h-1.778a.938.938 0 000 1.875zM4.984 76.598a2.664 2.664 0 012.649-2.395h64.734a2.664 2.664 0 012.649 2.395H4.984z" fill="#fff"/></svg>