<svg width="80" height="80" fill="none" xmlns="http://www.w3.org/2000/svg"><g clip-path="url(#clip0)" fill="#fff"><path d="M74.928 3.13l-1.29-.322a90.07 90.07 0 00-43.53 0l-1.288.322a6.689 6.689 0 00-5.073 6.497v9.326a90.14 90.14 0 00-19.131 7.888l-1.17.644A6.673 6.673 0 00.233 35.07L4.13 49.644a41.546 41.546 0 0025.912 28.26l4.018 1.474a12.116 12.116 0 0013.36-3.588l2.744-3.277a40.764 40.764 0 006.223-10.078c.844-.328 1.65-.752 2.399-1.262l3.503-2.452A41.56 41.56 0 0080 24.704V9.627a6.69 6.69 0 00-5.072-6.497zM48.114 70.79l-2.744 3.28a9.425 9.425 0 01-10.394 2.79l-4.018-1.473A38.87 38.87 0 016.718 48.95l-3.9-14.575a4 4 0 011.927-4.543l1.168-.645a87.474 87.474 0 0117.834-7.447v2.964a41.552 41.552 0 0014.246 31.289 25.318 25.318 0 01-7.377 1.771l-10.072.817a1.34 1.34 0 00-.443 2.557l13.352 6.028a6.696 6.696 0 008.204-2.194l2.922-4.065.382.267a12.048 12.048 0 006.913 2.17c.401 0 .79-.05 1.185-.09a38.235 38.235 0 01-4.945 7.537zM40.355 57.9c.366.268.722.557 1.098.82l.927.648-2.903 4.04a4.019 4.019 0 01-4.923 1.313l-8.622-3.884 4.9-.401a28.047 28.047 0 009.523-2.536zm36.967-33.197a38.876 38.876 0 01-16.567 31.822l-3.503 2.452a9.407 9.407 0 01-10.756 0l-3.502-2.452a38.875 38.875 0 01-16.569-31.822V9.627A4.018 4.018 0 0129.47 5.73l1.29-.322a87.36 87.36 0 0142.23 0l1.29.322a4.018 4.018 0 013.043 3.898v15.077z"/><path d="M46.908 25.143l1.827-1.961c-4.188-4.178-10.967-4.178-15.154 0l-.067.067 1.96 1.827a8.037 8.037 0 0111.434.067zm8.102-1.961l-.066.067 1.96 1.827a8.037 8.037 0 0111.434.067l1.827-1.961c-4.188-4.178-10.967-4.178-15.154 0zM19.098 44.554a8.036 8.036 0 016.19.855l1.248-2.372c-5.125-2.96-11.678-1.204-14.637 3.92l-.047.082 1.159.67 1.205.586a7.977 7.977 0 014.882-3.74zm47.268-6.944l-9.94 1.81a25.43 25.43 0 01-9.107 0l-9.941-1.81a1.339 1.339 0 00-1.088 2.355l11.342 9.277a6.717 6.717 0 008.482 0l11.34-9.28a1.339 1.339 0 00-1.088-2.354v.003zm-11.948 9.561a4.027 4.027 0 01-5.09 0l-7.332-5.998 4.844.88c3.327.609 6.736.609 10.062 0l4.845-.88-7.33 5.998z"/></g><defs><clipPath id="clip0"><path fill="#fff" d="M0 0h80v80H0z"/></clipPath></defs></svg>