<svg width="80" height="80" fill="none" xmlns="http://www.w3.org/2000/svg"><g clip-path="url(#clip0)" fill="#fff"><path d="M51.727 69.165c1.01-1.093 1.443-2.434 1.443-3.915 0-1.487-.425-2.836-1.443-3.929-.992-1.065-2.245-1.557-3.689-1.557-1.447 0-2.714.478-3.714 1.54-1.023 1.088-1.444 2.433-1.444 3.92 0 1.495.42 2.857 1.448 3.954.996 1.066 2.25 1.557 3.697 1.557 1.452 0 2.71-.495 3.702-1.57zM46.404 67.4c-.482-.615-.628-1.398-.628-2.164 0-.76.159-1.513.646-2.11.416-.513.943-.77 1.603-.77.664 0 1.204.244 1.616.77.483.61.633 1.376.633 2.137 0 .761-.16 1.522-.637 2.128-.416.526-.948.778-1.612.778-.669 0-1.204-.243-1.62-.77zm-5.069-7.459h-5.198a1.22 1.22 0 00-.908.394 1.284 1.284 0 00-.367.907c0 .367.128.686.39.942.243.23.535.367.872.367h1.213v6.707c0 .384.142.72.411.99l.005.01.009.004c.283.252.62.407 1 .407.377 0 .705-.15.966-.42.265-.275.407-.607.407-.991v-6.693h1.2c.35 0 .66-.128.907-.381.248-.252.381-.562.381-.916 0-.358-.128-.677-.376-.933a1.235 1.235 0 00-.912-.394zm-10.069 7.826c-.225.172-.5.234-.783.234-.439 0-.948-.154-1.355-.305-.288-.101-.775-.278-1.076-.278-.354 0-.664.132-.899.397a1.38 1.38 0 00-.35.956v.07c0 .682.536 1.11 1.098 1.38.762.364 1.639.474 2.471.474 1.08 0 2.13-.261 2.958-.995.775-.69 1.138-1.575 1.138-2.614 0-1.098-.425-1.991-1.364-2.566-.58-.372-1.372-.62-2.032-.81a8.235 8.235 0 01-.788-.248 1.63 1.63 0 01-.337-.15c-.084-.071-.181-.168-.181-.288 0-.168.084-.283.212-.38.186-.137.403-.19.629-.19.216 0 .496.07.703.128l.395.137c.243.08.567.182.823.182.359 0 .664-.142.903-.407.24-.261.36-.58.36-.934 0-.615-.421-1.035-.931-1.313-.633-.341-1.363-.456-2.072-.456-1.04 0-2.01.274-2.811.955-.753.65-1.134 1.487-1.134 2.486 0 .951.35 1.744 1.151 2.265.24.16.532.284.802.39.394.15.801.278 1.209.398.376.11.819.238 1.177.402.098.045.23.12.288.217a.68.68 0 01.075.323c0 .23-.092.398-.279.54zm35.527 2.486c.275.265.603.416.983.416.39 0 .73-.15.996-.438a1.43 1.43 0 00.403-1v-3.583l2.6-3.557c.185-.252.273-.54.273-.85 0-.389-.15-.725-.433-.99a1.382 1.382 0 00-.979-.407c-.482 0-.872.212-1.142.61l-1.718 2.464-1.704-2.464a1.309 1.309 0 00-1.143-.61 1.4 1.4 0 00-1.027.42 1.354 1.354 0 00-.416.977c0 .315.12.602.306.85l2.572 3.557v3.583c0 .398.142.748.43 1.022zm-4.211-6.897c0-.973-.34-1.809-1.07-2.46-.744-.663-1.661-.937-2.653-.937h-2.568c-.394 0-.74.137-1.014.416a1.415 1.415 0 00-.416 1.035v7.82c0 .395.137.74.416 1.018l.005.01.004.004c.288.252.62.407 1.005.407.376 0 .713-.132.983-.403.27-.274.403-.61.403-.995v-2.26l2.502 3.078c.283.35.646.58 1.102.58.38 0 .721-.137 1.005-.398l.009-.005.004-.008c.257-.284.408-.616.408-1 0-.35-.129-.655-.363-.916l-1.886-2.075c.318-.088.642-.207.894-.38.868-.598 1.23-1.491 1.23-2.53zm-3.068.668a.892.892 0 01-.642.261H57.69v-1.703h1.156c.252 0 .478.066.66.252l.004.005.009.004a.732.732 0 01.266.57.814.814 0 01-.27.611zm-41.578 6.247c.27.274.606.411.991.411.39 0 .726-.145.997-.429a1.39 1.39 0 00.402-.982v-8.003a1.42 1.42 0 00-.412-1.021 1.358 1.358 0 00-.986-.416c-.386 0-.718.163-.984.442-.26.279-.416.61-.416.995v2.557h-3.67v-2.557c0-.39-.137-.73-.403-1.008a1.32 1.32 0 00-.983-.43c-.39 0-.726.16-.997.443a1.412 1.412 0 00-.416.995v8.003c0 .389.137.73.416 1.004.275.27.611.407.997.407.385 0 .721-.137.987-.411.27-.274.398-.615.398-1v-2.835h3.671v2.835c0 .389.137.725.408 1zm4.79-9.998c-.261.279-.416.61-.416.995v7.99c0 .384.137.726.407 1 .27.274.611.41.992.41.385 0 .721-.136.992-.41.27-.27.407-.602.407-.987v-8.003c0-.39-.133-.73-.403-1.009a1.322 1.322 0 00-.983-.429c-.39 0-.726.16-.996.443z"/><path d="M78.425 24.957H19.78l57.574-11.13a1.577 1.577 0 001.248-1.847l-1.74-8.984a1.576 1.576 0 00-1.846-1.248l-16.499 3.19a1.52 1.52 0 00-.103.019L8.54 14.597l-.016.003-7.247 1.401a1.576 1.576 0 00-1.248 1.847l1.711 8.836v50.023c0 .87.706 1.576 1.576 1.576h30.085a1.576 1.576 0 100-3.151H4.89v-37.87h71.96v37.87H47.587a1.576 1.576 0 100 3.151h30.838c.87 0 1.575-.705 1.575-1.576V26.533c0-.87-.706-1.576-1.575-1.576zM53.17 34.11l4.505-6.001h8.766l-4.505 6.001H53.17zm-12.708 0l4.502-6.001h8.77L49.23 34.11h-8.767zm-12.711 0l4.506-6.001h8.767l-4.502 6.001h-8.771zm-12.707 0l4.506-6.001h8.766l-4.505 6.001h-8.767zM4.891 26.533a1.613 1.613 0 013.225 0 1.613 1.613 0 01-3.225 0zM20.947 15.41l6.302 4.895-8.367 1.617-6.299-4.895 8.364-1.617zm12.476-2.412l6.301 4.895-8.362 1.617-6.302-4.895 8.363-1.617zm12.476-2.411l6.3 4.894-8.361 1.617-6.301-4.894 8.362-1.617zm12.48-2.412l6.298 4.894-8.364 1.617-6.3-4.894 8.367-1.617zm16.83 2.858l-6.42 1.241-6.297-4.894 11.577-2.24 1.14 5.891zM8.47 17.82l6.3 4.897-4.525.874a4.757 4.757 0 00-6.122-1.179l-.7-3.616 5.047-.976zM4.891 31.014a4.74 4.74 0 001.613.281 4.771 4.771 0 004.494-3.185h4.612l-4.505 6.001H4.89v-3.097zm60.987 3.097l4.505-6.001h6.466v6.001H65.878z"/><path d="M70.49 54.04c.87 0 1.576-.704 1.576-1.575V46.02c0-.87-.706-1.576-1.576-1.576H10.364c-.87 0-1.576.706-1.576 1.576v6.445c0 .87.706 1.575 1.576 1.575H70.49zm-1.575-3.15h-17.53v-3.295h17.53v3.294zm-20.681 0H30.018v-3.295h18.216v3.294zM11.94 47.594h14.926v3.294H11.94v-3.294zm28.611 27.538h-.026a1.575 1.575 0 100 3.151h.026a1.576 1.576 0 100-3.151z"/></g><defs><clipPath id="clip0"><path fill="#fff" d="M0 0h80v80H0z"/></clipPath></defs></svg>