<svg width="80" height="80" fill="none" xmlns="http://www.w3.org/2000/svg"><g clip-path="url(#clip0)" fill="#fff"><path d="M77.919 25.107a4.409 4.409 0 00-6.115-2.194 48.306 48.306 0 00-5.915 3.667v-.693a25.886 25.886 0 10-51.771 0v.693a48.31 48.31 0 00-5.916-3.667 4.41 4.41 0 00-4.783 7.37 53.254 53.254 0 019.764 10.452c-.534 4.285-1.3 8.537-2.291 12.739L7.417 67.615a1.094 1.094 0 00.875 1.338l4.088.713a5.141 5.141 0 013.522 2.413l.497.826a7.35 7.35 0 007.078 3.505l.964-.106a5.156 5.156 0 014.042 1.328l.643.591a7.33 7.33 0 007.933 1.308l.858-.38a5.167 5.167 0 014.167 0l.858.38a7.324 7.324 0 007.933-1.308l.643-.59a5.157 5.157 0 014.043-1.329l.963.106a7.342 7.342 0 007.078-3.506l.5-.824a5.14 5.14 0 013.522-2.413l4.089-.714a1.094 1.094 0 00.875-1.338l-3.473-14.132a120.072 120.072 0 01-2.294-12.75 53.253 53.253 0 019.764-10.452 4.395 4.395 0 001.334-5.174zm-2.678 3.448a55.229 55.229 0 00-10.477 11.32 1.101 1.101 0 00-.168.727 122.29 122.29 0 002.388 13.395l3.195 13-2.937.513a7.324 7.324 0 00-5.02 3.437l-.5.825a5.16 5.16 0 01-4.966 2.46l-.965-.106a7.332 7.332 0 00-5.76 1.892l-.643.592a5.14 5.14 0 01-5.567.918l-.857-.38a7.334 7.334 0 00-5.938 0l-.857.38a5.142 5.142 0 01-5.566-.918l-.644-.592a7.333 7.333 0 00-5.76-1.892l-.965.105a5.164 5.164 0 01-4.966-2.458l-.497-.826a7.324 7.324 0 00-5.02-3.437l-2.937-.513 3.197-13.012a122.32 122.32 0 002.386-13.387 1.095 1.095 0 00-.168-.726 55.23 55.23 0 00-10.47-11.317 2.223 2.223 0 012.418-3.706 43.498 43.498 0 017.291 4.776 1.094 1.094 0 001.791-.812c.024-.975.043-1.949.043-2.924a23.698 23.698 0 1147.396 0c0 .975.019 1.95.043 2.924a1.094 1.094 0 001.79.815 43.496 43.496 0 017.291-4.776 2.219 2.219 0 013.08 1.106 2.205 2.205 0 01-.661 2.597z"/><path d="M31.914 13.828c-2.52 0-4.57 2.506-4.57 5.586 0 3.08 2.05 5.586 4.57 5.586 2.52 0 4.57-2.506 4.57-5.586 0-3.079-2.047-5.586-4.57-5.586zm0 8.985c-1.292 0-2.383-1.557-2.383-3.399 0-1.841 1.094-3.398 2.383-3.398 1.288 0 2.383 1.556 2.383 3.398 0 1.843-1.091 3.398-2.383 3.398zm16.172-8.985c-2.52 0-4.57 2.506-4.57 5.586 0 3.08 2.05 5.586 4.57 5.586 2.52 0 4.57-2.506 4.57-5.586 0-3.079-2.05-5.586-4.57-5.586zm0 8.985c-1.292 0-2.383-1.557-2.383-3.399 0-1.841 1.091-3.398 2.383-3.398 1.29 0 2.383 1.556 2.383 3.398 0 1.843-1.094 3.398-2.383 3.398zM40 24.297c-2.65 0-4.727 3.174-4.727 7.227 0 4.052 2.077 7.226 4.727 7.226 2.65 0 4.726-3.174 4.726-7.226S42.65 24.297 40 24.297zm0 12.265c-1.199 0-2.54-2.154-2.54-5.038 0-2.884 1.341-5.04 2.54-5.04s2.539 2.155 2.539 5.04c0 2.884-1.34 5.038-2.539 5.038z"/></g><defs><clipPath id="clip0"><path fill="#fff" d="M0 0h80v80H0z"/></clipPath></defs></svg>