<svg width="80" height="80" fill="none" xmlns="http://www.w3.org/2000/svg"><g clip-path="url(#clip0)" fill="#fff"><path d="M79.246 32.261c0-5.762-2.19-11.165-6.165-15.214-3.998-4.07-9.36-6.313-15.098-6.313A21.474 21.474 0 0040 20.424a21.474 21.474 0 00-17.983-9.69c-5.738 0-11.1 2.243-15.098 6.313C2.944 21.098.754 26.5.754 32.263c0 5.4 1.563 8.557 2.82 11.094l.136.276c5.2 10.535 34.274 34.7 35.51 35.723l.778.645.78-.643c.03-.025 2.772-2.287 6.677-5.675a267.097 267.097 0 006.564 5.672l.778.646.78-.644c.764-.63 18.746-15.5 21.823-21.994l.085-.18c.743-1.562 1.76-3.702 1.76-6.957 0-2.825-.826-5.498-2.392-7.782 1.052-2.256 2.393-5.51 2.393-10.181zm-3.97 23.87l-.087.184C72.684 61.6 58.325 73.858 54.8 76.817a279.255 279.255 0 01-6.516-5.676c-4.278-3.849-7.71-7.2-10.133-9.882a48.924 48.924 0 01-1.784-2.077 30.454 30.454 0 01-.578-.738c-.628-.83-1.094-1.55-1.389-2.147l-.05-.103c-.715-1.446-1.525-3.085-1.525-5.969 0-6.268 4.827-11.177 10.99-11.177 4.166 0 7.96 2.294 9.9 5.986l1.083 2.06 1.083-2.06a11.157 11.157 0 019.9-5.986c3.431 0 6.597 1.557 8.687 4.272 1.524 1.98 2.33 4.368 2.33 6.905 0 2.703-.81 4.405-1.523 5.907zm-.17-15.767l-.017-.015a13.56 13.56 0 00-.413-.383l-.073-.065a13.504 13.504 0 00-.966-.773l-.041-.028c-.148-.107-.299-.21-.451-.31l-.07-.047a13.027 13.027 0 00-1.061-.62l-.06-.031a12.17 12.17 0 00-.486-.24l-.063-.03a12.898 12.898 0 00-1.14-.461l-.076-.026c-.172-.06-.345-.116-.52-.168l-.051-.016a13.17 13.17 0 00-.548-.148l-.107-.027a13.015 13.015 0 00-.548-.12l-.093-.017a13.48 13.48 0 00-.555-.094l-.031-.005c-.191-.028-.383-.05-.576-.07l-.11-.01a13.614 13.614 0 00-.566-.041l-.105-.005A13.589 13.589 0 0054.8 42.16a13.59 13.59 0 00-10.983-5.56c-.681 0-1.354.05-2.014.148a13.215 13.215 0 00-7.535 3.852c-2.507 2.56-3.888 5.978-3.888 9.625 0 3.456.986 5.45 1.778 7.053l.05.102c.047.095.097.191.15.29l.053.096.115.206.072.121.115.193c.027.045.057.09.086.136l.12.19c.03.048.064.098.097.147.041.063.083.126.127.19.034.052.071.104.107.156l.135.194.118.164.144.197.127.172.152.202.138.179a44.71 44.71 0 00.477.603 40.865 40.865 0 00.69.83l.175.205a52.564 52.564 0 00.382.44l.206.233a89.696 89.696 0 00.611.68 56.89 56.89 0 00.437.473l.233.25.222.236.24.253.233.244.25.26.241.249.264.27.245.25.283.285.245.246.3.3a120.416 120.416 0 00.799.787l.283.276.299.29c.099.096.2.194.302.29l.297.286c.103.1.209.2.314.3l.305.29.318.3c.106.1.211.2.319.3.108.103.22.206.33.31l.321.3.348.322a130.61 130.61 0 001.016.935l.36.329.215.196a424.385 424.385 0 01-5.62 4.787c-4.739-3.981-29.584-25.122-34.099-34.27l-.138-.278c-1.202-2.428-2.565-5.18-2.565-10.009 0-10.699 8.265-19.08 18.816-19.08a19.046 19.046 0 0116.9 10.218L40 25.46l1.083-2.06a19.046 19.046 0 0116.9-10.219c10.551 0 18.816 8.381 18.816 19.08 0 3.517-.835 6.1-1.694 8.103zM23.113 0h-2.447v7.618h2.447V0zm9.347 2.222l-3.2 6.914 2.221 1.027L34.68 3.25l-2.22-1.028zm-21.141-.001L9.098 3.248l3.198 6.914 2.22-1.027-3.197-6.914z"/><path d="M8.424 33.597c0-.114 0-.23.003-.344l-2.446-.05c-.003.13-.004.262-.004.394 0 1.641.166 3.137.51 4.572l2.38-.57c-.299-1.246-.443-2.555-.443-4.002zm3.316-13.449c-2.932 2.755-4.896 6.48-5.531 10.488l2.417.383a15.94 15.94 0 014.79-9.088l-1.677-1.783zm28.956 21.545c-3.364 1.56-5.565 4.873-5.742 8.644l2.444.115c.134-2.858 1.793-5.363 4.327-6.539l-1.03-2.22z"/></g><defs><clipPath id="clip0"><path fill="#fff" d="M0 0h80v80H0z"/></clipPath></defs></svg>