<svg width="80" height="80" fill="none" xmlns="http://www.w3.org/2000/svg"><path d="M10.017 50.013l1.25 7.5c.053.317.226.602.483.795l9.688 7.265 1.126 3.38a1.25 1.25 0 001.392.838l.6-.1-.741 2.221a1.251 1.251 0 00-.065.396v3.75a1.25 1.25 0 001.25 1.25h30a1.25 1.25 0 001.212-1.556l-.753-2.992 7.671 4.383a1.25 1.25 0 001.66-.392s2.602-3.934 2.614-3.964c.005-.012 1.31-5.176 1.31-5.176a1.25 1.25 0 00-.654-1.421l-2.5-1.25a1.25 1.25 0 00-1.443.234s-2.728 2.787-2.788 2.952l-3.04-1.699 5.146-5.789a1.25 1.25 0 00.31-.706l1.25-12.5a1.253 1.253 0 00-.019-.37L63.02 37.28a10.397 10.397 0 00-7.674-8.048l-2.494-.624-6.965-2.321L45 24.512V22.62l.75-.562a1.25 1.25 0 00.5-1v-2.5a1.25 1.25 0 001.25-1.25v-4.804a25.56 25.56 0 001.25-7.9V3.559a1.25 1.25 0 00-1.25-1.25h-6.465a9.719 9.719 0 00-6.77 2.72l-2.029 1.014a6.306 6.306 0 000 11.281l.274.137a1.25 1.25 0 001.24 1.098v2.5a1.25 1.25 0 00.5 1l.75.562v1.892l-.905 1.811-5.586 2.235h-.818a12.05 12.05 0 00-11.886 10.069l-.735 4.404-4.796 5.995a1.252 1.252 0 00-.257.987zM26.25 72.511l1.095-3.285 4.11-.685a1.25 1.25 0 00.98-.838l.832-2.492 9.18 3.672-.987 1.481a1.25 1.25 0 00.259 1.67l3.468 2.774H26.25V72.51zm1.634-27.054l.535 4.278-2.692-1.504 2.157-2.774zm10.366-9.15a2.931 2.931 0 003.5 0A11.313 11.313 0 0046.12 29l.124.04a31.778 31.778 0 01-2.426 11.743 31.998 31.998 0 01-2.188 4.327l-.38-.076v-3.975a1.25 1.25 0 00-2.5 0v4.024l-3.605.9-4.586-2.292a1.245 1.245 0 00-.392-.12L30 42.23V30.654l3.895-1.558a11.313 11.313 0 004.355 7.212zm11.973 36.51l-1.566 1.566-4.481-3.585 1.626-2.44 1.2-.4.032-.013 4.377 2.502-.029.052-1.16 2.318zm-8.44-15.613l3.01-3.31a34.438 34.438 0 006.242-9.757l-2.237 7.828a1.252 1.252 0 00-.048.343v8.788l-6.966-3.892zm9.467-4.721l1.57-5.492.93 1.862v8.054l-2.5 3.5v-7.924zm0-21.759a31.881 31.881 0 01-8.308 21.489l-3.398 3.739-2.515-1.406 1.632-1.632a34.43 34.43 0 0010.063-23.048l2.526.843v.015zM31.127 51.248l-.597-4.778 3.911 1.956c.267.133.573.167.862.094l4.727-1.181.102.02a32 32 0 01-3.238 3.787L34.76 53.28l-3.634-2.03zm-6.953-1.021l12.357 6.905-1.321 1.982a1.25 1.25 0 102.08 1.387l1.43-2.145 1.758.981-1.518 2.277a1.25 1.25 0 102.08 1.387l1.627-2.44 4.33 2.42-1.84 2.956-.552.185a1.25 1.25 0 00-.645.492l-.095.143-10.662-4.265-3.568-3.568a1.25 1.25 0 00-.885-.366H25.6l-4.008-5.011 2.582-3.32zm27.594 24.58l.366-.365c.095-.095.174-.205.234-.325l.569-1.136.46 1.827h-1.63zm11.59-.413l-15.136-8.649.96-1.543L64.46 72.74l-1.103 1.654zm1.889-6.815l.797.398-.61 2.443-1.943-1.086 1.756-1.755zm-6.84-33.846a7.872 7.872 0 012.16 4.036l1.92 9.601-1.19 11.91-5.243 5.898-3.673-2.053 3.636-5.09a1.25 1.25 0 00.233-.727v-8.75a1.25 1.25 0 00-.132-.56l-2.368-4.735V31.409l.989.247a7.9 7.9 0 013.669 2.077zM35 16.058v-2.5h10v2.5h-2.205L40.56 14.94a1.25 1.25 0 00-1.118 0l-2.236 1.118H35zm-3.75-4.375a3.786 3.786 0 012.104-3.405l2.205-1.102c.12-.06.23-.14.325-.235a7.238 7.238 0 015.151-2.133h5.214a23.06 23.06 0 01-.918 6.25H33.75a1.25 1.25 0 00-1.25 1.25v2.197a3.785 3.785 0 01-1.25-2.822zm6.25 6.875c.194 0 .386-.046.56-.132l1.94-.97 1.941.97c.173.087.365.132.559.132h1.25v1.875l-2.5 1.875h-2.5l-2.5-1.875v-1.875h1.25zm.084 6c.216.162.479.25.75.25h3.333c.27 0 .533-.088.75-.25l.083-.063v.313c0 .194.045.385.132.559l1.11 2.218a8.791 8.791 0 01-3.492 6.723.419.419 0 01-.5 0 8.792 8.792 0 01-3.492-6.722l1.11-2.218c.087-.174.132-.366.132-.56v-.313l.084.063zm-20.358 19.78c.134-.166.222-.364.257-.574l.787-4.726a9.55 9.55 0 019.23-7.978v10.819l-4.337 5.576a1.24 1.24 0 00-.625.805l-3.524 4.53a1.25 1.25 0 00.01 1.549l5 6.25a1.25 1.25 0 00.976.469h3.232l2.838 2.837-.768 2.303-5.704.951-.912-2.737a1.25 1.25 0 00-.436-.604l-9.6-7.2-1.075-6.455 4.651-5.814z" fill="#fff"/></svg>