<svg width="81" height="81" fill="none" xmlns="http://www.w3.org/2000/svg"><path d="M52.143 53.447H30.345a1.08 1.08 0 01-1.081-1.08V18.405c.663-6.11 4.38-11.422 11.361-16.24a1.081 1.081 0 011.227 0c6.992 4.816 10.703 10.13 11.36 16.244a.998.998 0 01.007.114v33.842a1.08 1.08 0 01-1.076 1.081zm-20.717-2.162h19.636V18.581c-.587-5.324-3.714-9.854-9.813-14.205-6.096 4.354-9.223 8.883-9.819 14.206l-.004 32.703z" fill="#fff"/><path d="M24.775 55.68a1.08 1.08 0 01-.794-.346l-1.462-1.587a11.429 11.429 0 01-2.198-12.191l.055-.13a18.194 18.194 0 019.602-9.561 1.081 1.081 0 011.448 1.017v15.21a1.08 1.08 0 01-.509.916 14.453 14.453 0 00-5.14 6.005 1.081 1.081 0 01-.811.648 1.115 1.115 0 01-.19.02zm-3.46-13.7l.994.424a9.26 9.26 0 001.8 9.878l.411.447a16.414 16.414 0 014.744-5.221V34.613a16.533 16.533 0 00-6.906 7.675l-1.042-.308zm36.407 13.7a1.082 1.082 0 01-1.001-.665 14.453 14.453 0 00-5.14-6.003 1.08 1.08 0 01-.51-.917V32.882a1.081 1.081 0 011.45-1.017 18.194 18.194 0 019.6 9.56l.055.13a11.428 11.428 0 01-2.197 12.192l-1.462 1.587a1.083 1.083 0 01-.795.347zm-4.488-8.172a16.415 16.415 0 014.744 5.22l.41-.446a9.262 9.262 0 001.8-9.875l.942-.54-.99.432a16.533 16.533 0 00-6.906-7.675v12.884zM41.249 23.751a5.694 5.694 0 115.693-5.694 5.7 5.7 0 01-5.693 5.694zm0-9.225a3.532 3.532 0 10-.002 7.064 3.532 3.532 0 00.002-7.064zm9.775 43.39h-19.56a1.081 1.081 0 01-1.081-1.08v-4.47a1.081 1.081 0 011.081-1.08h19.56a1.081 1.081 0 011.081 1.08v4.47a1.081 1.081 0 01-1.08 1.08zm-18.479-2.162h17.398v-2.307H32.545v2.307z" fill="#fff"/><path d="M41.322 77.65a3.603 3.603 0 01-3.23-2.4 26.846 26.846 0 00-3.655-5.931c-2.425-3.18-4.34-5.693-1.8-12.845a1.081 1.081 0 011.019-.72h15.16a1.08 1.08 0 011.02.72 17.983 17.983 0 011.227 5.874c0 3.05-1.366 4.878-2.948 6.993a27.143 27.143 0 00-3.58 5.91 3.58 3.58 0 01-3.207 2.4h-.007zm-6.894-19.733c-1.795 5.469-.517 7.145 1.73 10.091a29.056 29.056 0 013.918 6.379c.3.69.767 1.102 1.248 1.102.475 0 .934-.41 1.228-1.092a29.398 29.398 0 013.834-6.35c1.514-2.028 2.518-3.367 2.518-5.7a14.632 14.632 0 00-.857-4.431H34.429z" fill="#fff"/><path d="M41.284 67.425a2.378 2.378 0 01-2.134-1.545 13.266 13.266 0 00-1.798-2.92c-1.22-1.605-2.27-2.99-1.2-6.449a1.081 1.081 0 011.033-.757h8.108a1.081 1.081 0 011.032.757c.28.829.435 1.694.458 2.569a6.054 6.054 0 01-1.61 3.892c-.709.89-1.3 1.867-1.762 2.907a2.37 2.37 0 01-2.123 1.546h-.004zm-3.278-9.508c-.413 1.796.09 2.46 1.062 3.738a15.347 15.347 0 012.06 3.362.561.561 0 00.172.247c-.016-.018.055-.085.12-.24a15.422 15.422 0 012.021-3.35 4.073 4.073 0 001.18-2.595 5.226 5.226 0 00-.153-1.167l-6.462.005zM41.25 47.43a1.081 1.081 0 01-1.082-1.081v-6.337a1.081 1.081 0 012.162 0v6.337a1.081 1.081 0 01-1.08 1.081zm-5.082-.027a1.081 1.081 0 01-1.081-1.08v-2.788a1.08 1.08 0 112.162 0v2.787a1.081 1.081 0 01-1.081 1.081zm10.149 0a1.081 1.081 0 01-1.081-1.08v-2.788a1.081 1.081 0 012.162 0v2.787a1.081 1.081 0 01-1.081 1.081z" fill="#fff"/></svg>