<svg width="114" height="114" fill="none" xmlns="http://www.w3.org/2000/svg"><g clip-path="url(#clip0)" fill="#fff"><path d="M55.175 73.837L40.17 58.026a1.081 1.081 0 01.04-1.529L64.757 33.2l.085-.08c4.888-3.725 11.3-4.686 19.6-2.938a1.081 1.081 0 01.845.89c1.319 8.386.02 14.736-3.963 19.421a1 1 0 01-.078.084L56.699 73.873a1.081 1.081 0 01-1.524-.036zM42.482 57.32l13.517 14.243L79.72 49.052c3.457-4.091 4.591-9.477 3.548-16.897-7.354-1.425-12.792-.574-17.063 2.658L42.482 57.32z"/><path d="M34.715 55.523a1.084 1.084 0 01-.295-.815l.145-2.153a11.428 11.428 0 017.33-9.986l.132-.05a18.195 18.195 0 0113.544.383 1.08 1.08 0 01.26 1.751l-11.033 10.47a1.081 1.081 0 01-1.015.262 14.453 14.453 0 00-7.894.404 1.082 1.082 0 01-1.029-.141 1.12 1.12 0 01-.145-.125zm7.557-11.94l.376 1.012a9.261 9.261 0 00-5.926 8.105l-.04.606a16.414 16.414 0 017.051-.153l9.354-8.877a16.533 16.533 0 00-10.322.275l-.493-.968zm15.123 35.838a1.083 1.083 0 01-.207-1.184 14.454 14.454 0 00.817-7.861 1.082 1.082 0 01.314-1l11.035-10.473a1.082 1.082 0 011.735.35 18.195 18.195 0 01-.326 13.546l-.056.13a11.428 11.428 0 01-10.356 6.798l-2.157.032a1.08 1.08 0 01-.799-.338zm2.839-8.881c.338 2.354.16 4.755-.522 7.034l.607-.01a9.262 9.262 0 008.402-5.491l1.04.31-.995-.42a16.533 16.533 0 00.813-10.293l-9.345 8.87zm8.982-25.047a5.694 5.694 0 118.049.21 5.7 5.7 0 01-8.05-.21zm6.691-6.35a3.532 3.532 0 10-5.125 4.86 3.532 3.532 0 005.125-4.86zM51.163 76.102L37.698 61.914a1.08 1.08 0 01.04-1.529l3.242-3.076a1.081 1.081 0 011.528.04l13.465 14.188a1.08 1.08 0 01-.04 1.528l-3.242 3.077a1.081 1.081 0 01-1.528-.04zM40.01 61.209l11.976 12.62 1.673-1.588-11.976-12.62-1.673 1.588z"/><path d="M30.17 82.648a3.602 3.602 0 01-.483-3.996 26.849 26.849 0 001.787-6.733c.638-3.948 1.141-7.067 8.077-10.147a1.082 1.082 0 011.224.243L51.21 73.012a1.08 1.08 0 01.18 1.235 17.984 17.984 0 01-3.416 4.933c-2.213 2.1-4.479 2.367-7.102 2.676-2.304.2-4.573.695-6.751 1.47a3.581 3.581 0 01-3.948-.673l-.005-.005zm9.569-18.584c-5.204 2.462-5.54 4.544-6.13 8.202a29.065 29.065 0 01-1.93 7.232c-.294.692-.271 1.315.06 1.663.328.346.94.396 1.638.14a29.398 29.398 0 017.245-1.59c2.513-.298 4.175-.491 5.867-2.096a14.63 14.63 0 002.625-3.673l-9.375-9.878z"/><path d="M37.56 75.582a2.378 2.378 0 01-.348-2.612c.435-1.062.731-2.175.88-3.313.325-1.99.607-3.706 3.853-5.31a1.081 1.081 0 011.26.228l5.581 5.882a1.082 1.082 0 01.161 1.269 8.73 8.73 0 01-1.548 2.1 6.054 6.054 0 01-3.931 1.51c-1.134.1-2.25.344-3.321.725a2.37 2.37 0 01-2.583-.476l-.003-.003zm4.641-8.923c-1.587.937-1.721 1.759-1.98 3.344a15.346 15.346 0 01-1.021 3.808.562.562 0 00-.06.295c0-.024.099-.018.256-.077a15.426 15.426 0 013.822-.841 4.072 4.072 0 002.694-.93c.28-.276.53-.583.74-.914l-4.451-4.685zm9.839-4.866a1.081 1.081 0 01.04-1.529l4.597-4.362a1.08 1.08 0 111.488 1.568l-4.596 4.363a1.08 1.08 0 01-1.529-.04zm-3.478-3.704a1.082 1.082 0 01.04-1.529l2.021-1.918a1.08 1.08 0 011.489 1.568l-2.022 1.919a1.081 1.081 0 01-1.528-.04zm6.986 7.361a1.08 1.08 0 01.04-1.528l2.022-1.918a1.081 1.081 0 111.488 1.568l-2.021 1.918a1.08 1.08 0 01-1.529-.04z"/></g><defs><clipPath id="clip0"><path fill="#fff" transform="rotate(46.498 29.015 67.536)" d="M0 0h80v80H0z"/></clipPath></defs></svg>