<svg width="80" height="80" fill="none" xmlns="http://www.w3.org/2000/svg"><path d="M56.812 49.14a1.739 1.739 0 00-2.456.135C50.73 53.329 45.497 55.652 40 55.652c-5.496 0-10.729-2.323-14.357-6.377a1.739 1.739 0 10-2.59 2.32C27.338 56.385 33.515 59.13 40 59.13c6.485 0 12.663-2.747 16.948-7.535a1.74 1.74 0 00-.136-2.456z" fill="#fff"/><path d="M40 0C17.944 0 0 17.944 0 40s17.944 40 40 40 40-17.944 40-40S62.056 0 40 0zm0 76.522C19.86 76.522 3.478 60.139 3.478 40 3.478 19.86 19.861 3.478 40 3.478c20.14 0 36.522 16.383 36.522 36.522 0 20.14-16.383 36.522-36.522 36.522z" fill="#fff"/><path d="M53.913 27.826c-4.795 0-8.696 3.901-8.696 8.696a1.74 1.74 0 003.479 0 5.224 5.224 0 015.217-5.218 5.224 5.224 0 015.217 5.218 1.74 1.74 0 003.479 0c0-4.795-3.901-8.696-8.696-8.696zm-22.609 8.696a1.74 1.74 0 003.479 0c0-4.795-3.901-8.696-8.696-8.696s-8.696 3.901-8.696 8.696a1.74 1.74 0 003.479 0 5.224 5.224 0 015.217-5.218 5.224 5.224 0 015.217 5.218z" fill="#fff"/></svg>